<mxfile host="app.diagrams.net" modified="2023-10-12T08:26:07.194Z" agent="Mozilla/5.0 (Windows NT 10.0; Win64; x64) AppleWebKit/537.36 (KHTML, like Gecko) Chrome/117.0.0.0 Safari/537.36" etag="ZCDd5rUkCapkZHKWWiIn" version="22.0.4" type="device">
  <diagram name="Page-1" id="gvnQOFQk9SpfDOQZFpwq">
    <mxGraphModel dx="712" dy="772" grid="1" gridSize="10" guides="1" tooltips="1" connect="1" arrows="1" fold="1" page="1" pageScale="1" pageWidth="827" pageHeight="1169" math="0" shadow="0">
      <root>
        <mxCell id="0" />
        <mxCell id="1" parent="0" />
        <mxCell id="-wde9RioVdZ9eTj3aFXg-112" value="" style="group" vertex="1" connectable="0" parent="1">
          <mxGeometry width="240" height="240" as="geometry" />
        </mxCell>
        <mxCell id="-wde9RioVdZ9eTj3aFXg-113" value="" style="rounded=0;whiteSpace=wrap;html=1;" vertex="1" parent="-wde9RioVdZ9eTj3aFXg-112">
          <mxGeometry width="240" height="240" as="geometry" />
        </mxCell>
        <mxCell id="-wde9RioVdZ9eTj3aFXg-114" value="" style="endArrow=none;html=1;rounded=0;" edge="1" parent="-wde9RioVdZ9eTj3aFXg-112">
          <mxGeometry width="50" height="50" relative="1" as="geometry">
            <mxPoint x="40" y="240" as="sourcePoint" />
            <mxPoint x="40" y="200" as="targetPoint" />
          </mxGeometry>
        </mxCell>
        <mxCell id="-wde9RioVdZ9eTj3aFXg-115" value="" style="endArrow=none;html=1;rounded=0;" edge="1" parent="-wde9RioVdZ9eTj3aFXg-112">
          <mxGeometry width="50" height="50" relative="1" as="geometry">
            <mxPoint x="40" y="200" as="sourcePoint" />
            <mxPoint x="80" y="200" as="targetPoint" />
          </mxGeometry>
        </mxCell>
        <mxCell id="-wde9RioVdZ9eTj3aFXg-116" value="" style="endArrow=none;html=1;rounded=0;" edge="1" parent="-wde9RioVdZ9eTj3aFXg-112">
          <mxGeometry width="50" height="50" relative="1" as="geometry">
            <mxPoint x="80" y="200" as="sourcePoint" />
            <mxPoint x="80" y="160" as="targetPoint" />
          </mxGeometry>
        </mxCell>
        <mxCell id="-wde9RioVdZ9eTj3aFXg-117" value="" style="endArrow=none;html=1;rounded=0;" edge="1" parent="-wde9RioVdZ9eTj3aFXg-112">
          <mxGeometry width="50" height="50" relative="1" as="geometry">
            <mxPoint x="80" y="160" as="sourcePoint" />
            <mxPoint x="120" y="160" as="targetPoint" />
          </mxGeometry>
        </mxCell>
        <mxCell id="-wde9RioVdZ9eTj3aFXg-118" value="" style="endArrow=none;html=1;rounded=0;" edge="1" parent="-wde9RioVdZ9eTj3aFXg-112">
          <mxGeometry width="50" height="50" relative="1" as="geometry">
            <mxPoint x="120" y="160" as="sourcePoint" />
            <mxPoint x="120" y="120" as="targetPoint" />
          </mxGeometry>
        </mxCell>
        <mxCell id="-wde9RioVdZ9eTj3aFXg-119" value="" style="endArrow=none;html=1;rounded=0;" edge="1" parent="-wde9RioVdZ9eTj3aFXg-112">
          <mxGeometry width="50" height="50" relative="1" as="geometry">
            <mxPoint x="120" y="120" as="sourcePoint" />
            <mxPoint x="160" y="120" as="targetPoint" />
          </mxGeometry>
        </mxCell>
        <mxCell id="-wde9RioVdZ9eTj3aFXg-120" value="" style="endArrow=none;html=1;rounded=0;" edge="1" parent="-wde9RioVdZ9eTj3aFXg-112">
          <mxGeometry width="50" height="50" relative="1" as="geometry">
            <mxPoint x="160" y="120" as="sourcePoint" />
            <mxPoint x="160" y="80" as="targetPoint" />
          </mxGeometry>
        </mxCell>
        <mxCell id="-wde9RioVdZ9eTj3aFXg-121" value="" style="endArrow=none;html=1;rounded=0;" edge="1" parent="-wde9RioVdZ9eTj3aFXg-112">
          <mxGeometry width="50" height="50" relative="1" as="geometry">
            <mxPoint x="200" y="40" as="sourcePoint" />
            <mxPoint x="240" y="40" as="targetPoint" />
          </mxGeometry>
        </mxCell>
        <mxCell id="-wde9RioVdZ9eTj3aFXg-122" value="" style="endArrow=none;html=1;rounded=0;" edge="1" parent="-wde9RioVdZ9eTj3aFXg-112">
          <mxGeometry width="50" height="50" relative="1" as="geometry">
            <mxPoint x="160" y="80" as="sourcePoint" />
            <mxPoint x="200" y="80" as="targetPoint" />
          </mxGeometry>
        </mxCell>
        <mxCell id="-wde9RioVdZ9eTj3aFXg-123" value="" style="endArrow=none;html=1;rounded=0;" edge="1" parent="-wde9RioVdZ9eTj3aFXg-112">
          <mxGeometry width="50" height="50" relative="1" as="geometry">
            <mxPoint x="200" y="80" as="sourcePoint" />
            <mxPoint x="200" y="40" as="targetPoint" />
          </mxGeometry>
        </mxCell>
        <mxCell id="-wde9RioVdZ9eTj3aFXg-124" value="" style="ellipse;whiteSpace=wrap;html=1;" vertex="1" parent="-wde9RioVdZ9eTj3aFXg-112">
          <mxGeometry x="210" y="20" width="30" height="20" as="geometry" />
        </mxCell>
        <mxCell id="-wde9RioVdZ9eTj3aFXg-125" value="" style="ellipse;whiteSpace=wrap;html=1;aspect=fixed;" vertex="1" parent="-wde9RioVdZ9eTj3aFXg-112">
          <mxGeometry x="230" y="20" width="10" height="10" as="geometry" />
        </mxCell>
        <mxCell id="-wde9RioVdZ9eTj3aFXg-126" value="" style="curved=1;endArrow=classic;html=1;rounded=0;exitX=0;exitY=1;exitDx=0;exitDy=0;" edge="1" parent="-wde9RioVdZ9eTj3aFXg-112" source="-wde9RioVdZ9eTj3aFXg-124">
          <mxGeometry width="50" height="50" relative="1" as="geometry">
            <mxPoint x="180" y="40" as="sourcePoint" />
            <mxPoint x="210" y="10" as="targetPoint" />
            <Array as="points">
              <mxPoint x="200" y="37" />
              <mxPoint x="200" y="30" />
              <mxPoint x="200" y="20" />
            </Array>
          </mxGeometry>
        </mxCell>
      </root>
    </mxGraphModel>
  </diagram>
</mxfile>
